<svg viewBox="0 0 1040 560" xmlns="http://www.w3.org/2000/svg" font-family="Helvetica, Arial, sans-serif">
  <defs>
    <marker id="arrow" viewBox="0 0 10 10" refX="9" refY="5" markerWidth="8" markerHeight="8" orient="auto-start-reverse">
      <path d="M0,0 L10,5 L0,10 z" fill="#37474F"/>
    </marker>
  </defs>

  <rect x="0" y="0" width="1040" height="560" fill="#FFFFFF"/>

  <text x="520" y="30" text-anchor="middle" font-size="20" font-weight="700" fill="#212121">INDI MCP Server — Architecture Layers</text>

  <!-- Client Computer -->
  <text x="145" y="235" text-anchor="middle" font-size="15" font-weight="700" fill="#212121">Client Computer</text>
  <rect x="30" y="250" width="230" height="200" rx="10" fill="#E8F0FE" stroke="#4285F4" stroke-width="2"/>
  <text x="145" y="335" text-anchor="middle" font-size="14" font-weight="700" fill="#1A56C4">MCP Client</text>
  <text x="145" y="358" text-anchor="middle" font-size="12" fill="#37474F">script / AI assistant / app</text>
  <text x="145" y="380" text-anchor="middle" font-size="12" fill="#37474F">connects over the local</text>
  <text x="145" y="396" text-anchor="middle" font-size="12" fill="#37474F">network (Wi-Fi / Ethernet)</text>

  <!-- INDI Device outer -->
  <text x="520" y="52" text-anchor="middle" font-size="15" font-weight="700" fill="#212121">INDI Device (Raspberry Pi)</text>
  <rect x="340" y="60" width="360" height="470" rx="10" fill="#FFF8E1" stroke="#F9A825" stroke-width="2"/>

  <!-- MCP Server layer -->
  <rect x="365" y="90" width="310" height="100" rx="8" fill="#E3F2FD" stroke="#1976D2" stroke-width="2"/>
  <text x="520" y="110" text-anchor="middle" font-size="13" font-weight="700" fill="#0D47A1">MCP Server</text>
  <rect x="375" y="120" width="140" height="55" rx="6" fill="#FFFFFF" stroke="#1976D2" stroke-width="1.5"/>
  <text x="445" y="141" text-anchor="middle" font-size="11" fill="#0D47A1">Frame</text>
  <text x="445" y="156" text-anchor="middle" font-size="11" fill="#0D47A1">Storage</text>
  <rect x="525" y="120" width="140" height="55" rx="6" fill="#FFFFFF" stroke="#1976D2" stroke-width="1.5"/>
  <text x="595" y="141" text-anchor="middle" font-size="11" fill="#0D47A1">Equipment &amp;</text>
  <text x="595" y="156" text-anchor="middle" font-size="11" fill="#0D47A1">Server Control Tools</text>

  <!-- INDI Server layer -->
  <rect x="365" y="224" width="310" height="80" rx="8" fill="#E8F5E9" stroke="#388E3C" stroke-width="2"/>
  <text x="520" y="252" text-anchor="middle" font-size="13" font-weight="700" fill="#1B5E20">INDI Server (indiserver)</text>
  <text x="520" y="272" text-anchor="middle" font-size="11" fill="#2E5E32">+ indiweb: process, FIFO &amp; driver-catalog control</text>

  <!-- INDI Drivers layer -->
  <rect x="365" y="338" width="310" height="80" rx="8" fill="#FCE4EC" stroke="#C2185B" stroke-width="2"/>
  <text x="520" y="366" text-anchor="middle" font-size="13" font-weight="700" fill="#880E4F">INDI Drivers</text>
  <text x="520" y="386" text-anchor="middle" font-size="11" fill="#880E4F">indi_* processes — one per device family</text>

  <!-- USB/Serial interface -->
  <rect x="365" y="438" width="310" height="60" rx="8" fill="#ECEFF1" stroke="#546E7A" stroke-width="2"/>
  <text x="520" y="473" text-anchor="middle" font-size="13" font-weight="700" fill="#37474F">USB / Serial Interface</text>

  <!-- Astrophotography Instruments -->
  <text x="890" y="95" text-anchor="middle" font-size="15" font-weight="700" fill="#212121">Astrophotography</text>
  <text x="890" y="113" text-anchor="middle" font-size="15" font-weight="700" fill="#212121">Instruments</text>

  <rect x="780" y="130" width="220" height="60" rx="8" fill="#F3E5F5" stroke="#8E24AA" stroke-width="2"/>
  <text x="890" y="165" text-anchor="middle" font-size="13" fill="#4A148C">Mount / Telescope</text>

  <rect x="780" y="205" width="220" height="60" rx="8" fill="#F3E5F5" stroke="#8E24AA" stroke-width="2"/>
  <text x="890" y="240" text-anchor="middle" font-size="13" fill="#4A148C">Main Camera (CCD/CMOS)</text>

  <rect x="780" y="280" width="220" height="60" rx="8" fill="#F3E5F5" stroke="#8E24AA" stroke-width="2"/>
  <text x="890" y="315" text-anchor="middle" font-size="13" fill="#4A148C">Filter Wheel</text>

  <rect x="780" y="355" width="220" height="60" rx="8" fill="#F3E5F5" stroke="#8E24AA" stroke-width="2"/>
  <text x="890" y="390" text-anchor="middle" font-size="13" fill="#4A148C">Focuser</text>

  <rect x="780" y="430" width="220" height="60" rx="8" fill="#F3E5F5" stroke="#8E24AA" stroke-width="2"/>
  <text x="890" y="465" text-anchor="middle" font-size="13" fill="#4A148C">Guide Camera</text>

  <!-- Arrow: Client <-> MCP Server -->
  <line x1="260" y1="350" x2="358" y2="140" stroke="#37474F" stroke-width="2" marker-start="url(#arrow)" marker-end="url(#arrow)"/>
  <text x="300" y="270" font-size="11" fill="#212121">MCP protocol</text>
  <text x="300" y="285" font-size="11" fill="#212121">(local network,</text>
  <text x="300" y="300" font-size="11" fill="#212121">e.g. Streamable HTTP)</text>

  <!-- Arrow: MCP Server -> INDI Server -->
  <line x1="520" y1="190" x2="520" y2="222" stroke="#37474F" stroke-width="2" marker-end="url(#arrow)"/>
  <text x="512" y="200" font-size="10" fill="#212121" text-anchor="end">indipyclient (device control) /</text>
  <text x="512" y="213" font-size="10" fill="#212121" text-anchor="end">indiweb (server/driver mgmt)</text>

  <!-- Arrow: INDI Server -> Drivers -->
  <line x1="520" y1="304" x2="520" y2="336" stroke="#37474F" stroke-width="2" marker-end="url(#arrow)"/>
  <text x="512" y="323" font-size="10" fill="#212121" text-anchor="end">start / stop via FIFO</text>

  <!-- Arrow: Drivers -> USB/Serial -->
  <line x1="520" y1="418" x2="520" y2="436" stroke="#37474F" stroke-width="2" marker-end="url(#arrow)"/>

  <!-- Arrows: USB/Serial -> devices -->
  <line x1="675" y1="453" x2="778" y2="160" stroke="#37474F" stroke-width="1.5" marker-end="url(#arrow)"/>
  <line x1="675" y1="463" x2="778" y2="235" stroke="#37474F" stroke-width="1.5" marker-end="url(#arrow)"/>
  <line x1="675" y1="468" x2="778" y2="310" stroke="#37474F" stroke-width="1.5" marker-end="url(#arrow)"/>
  <line x1="675" y1="473" x2="778" y2="385" stroke="#37474F" stroke-width="1.5" marker-end="url(#arrow)"/>
  <line x1="675" y1="478" x2="778" y2="460" stroke="#37474F" stroke-width="1.5" marker-end="url(#arrow)"/>
  <text x="705" y="515" font-size="11" fill="#212121">USB / Serial</text>

  <!-- Legend -->
  <line x1="30" y1="490" x2="60" y2="490" stroke="#37474F" stroke-width="2" marker-end="url(#arrow)"/>
  <text x="67" y="494" font-size="11" fill="#37474F">data / control flow</text>
</svg>
