<svg viewBox="0 0 1260 620" xmlns="http://www.w3.org/2000/svg" font-family="Helvetica, Arial, sans-serif">
  <defs>
    <marker id="arrow" viewBox="0 0 10 10" refX="9" refY="5" markerWidth="8" markerHeight="8" orient="auto-start-reverse">
      <path d="M0,0 L10,5 L0,10 z" fill="#37474F"/>
    </marker>
  </defs>

  <rect x="0" y="0" width="1260" height="620" fill="#FFFFFF"/>

  <text x="630" y="30" text-anchor="middle" font-size="20" font-weight="700" fill="#212121">INDI MCP Server — Architecture Layers</text>

  <!-- Client Computer -->
  <text x="145" y="205" text-anchor="middle" font-size="15" font-weight="700" fill="#212121">Client Computer</text>
  <rect x="30" y="215" width="230" height="250" rx="10" fill="#E8F0FE" stroke="#4285F4" stroke-width="2"/>
  <text x="145" y="335" text-anchor="middle" font-size="14" font-weight="700" fill="#1A56C4">MCP Client</text>
  <text x="145" y="358" text-anchor="middle" font-size="12" fill="#37474F">script / AI assistant / app</text>
  <text x="145" y="380" text-anchor="middle" font-size="12" fill="#37474F">connects over the local</text>
  <text x="145" y="396" text-anchor="middle" font-size="12" fill="#37474F">network (Wi-Fi / Ethernet)</text>

  <!-- INDI Device outer -->
  <text x="640" y="52" text-anchor="middle" font-size="15" font-weight="700" fill="#212121">INDI Device (Raspberry Pi)</text>
  <rect x="340" y="60" width="600" height="518" rx="10" fill="#FFF8E1" stroke="#F9A825" stroke-width="2"/>

  <!-- MCP Server layer -->
  <rect x="365" y="90" width="310" height="160" rx="8" fill="#E3F2FD" stroke="#1976D2" stroke-width="2"/>
  <text x="520" y="112" text-anchor="middle" font-size="13" font-weight="700" fill="#0D47A1">MCP Server</text>

  <rect x="375" y="124" width="140" height="46" rx="6" fill="#FFFFFF" stroke="#1976D2" stroke-width="1.5"/>
  <text x="445" y="143" text-anchor="middle" font-size="11" fill="#0D47A1">Server</text>
  <text x="445" y="158" text-anchor="middle" font-size="11" fill="#0D47A1">Control</text>

  <rect x="525" y="124" width="140" height="46" rx="6" fill="#FFFFFF" stroke="#1976D2" stroke-width="1.5"/>
  <text x="595" y="143" text-anchor="middle" font-size="11" fill="#0D47A1">Equipment /</text>
  <text x="595" y="158" text-anchor="middle" font-size="11" fill="#0D47A1">Messaging</text>

  <rect x="375" y="178" width="140" height="46" rx="6" fill="#FFFFFF" stroke="#1976D2" stroke-width="1.5"/>
  <text x="445" y="197" text-anchor="middle" font-size="11" fill="#0D47A1">Scripting</text>
  <text x="445" y="212" text-anchor="middle" font-size="11" fill="#0D47A1">(YAML)</text>

  <rect x="525" y="178" width="140" height="46" rx="6" fill="#FFFFFF" stroke="#1976D2" stroke-width="1.5"/>
  <text x="595" y="197" text-anchor="middle" font-size="11" fill="#0D47A1">Frame</text>
  <text x="595" y="212" text-anchor="middle" font-size="11" fill="#0D47A1">Storage</text>

  <!-- Local Storage (event log, frame metadata, rig/script library) -->
  <rect x="695" y="90" width="220" height="160" rx="8" fill="#EDE7F6" stroke="#5E35B1" stroke-width="2"/>
  <text x="805" y="112" text-anchor="middle" font-size="13" font-weight="700" fill="#311B92">Local Storage</text>

  <rect x="705" y="124" width="200" height="46" rx="6" fill="#FFFFFF" stroke="#5E35B1" stroke-width="1.5"/>
  <text x="805" y="143" text-anchor="middle" font-size="11" fill="#311B92">Event Log &amp;</text>
  <text x="805" y="158" text-anchor="middle" font-size="11" fill="#311B92">Frame Metadata (SQLite)</text>

  <rect x="705" y="178" width="200" height="46" rx="6" fill="#FFFFFF" stroke="#5E35B1" stroke-width="1.5"/>
  <text x="805" y="197" text-anchor="middle" font-size="11" fill="#311B92">Rig &amp; Script</text>
  <text x="805" y="212" text-anchor="middle" font-size="11" fill="#311B92">Library (YAML)</text>

  <!-- INDI Server layer -->
  <rect x="365" y="284" width="310" height="80" rx="8" fill="#E8F5E9" stroke="#388E3C" stroke-width="2"/>
  <text x="520" y="312" text-anchor="middle" font-size="13" font-weight="700" fill="#1B5E20">INDI Server (indiserver)</text>
  <text x="520" y="332" text-anchor="middle" font-size="11" fill="#2E5E32">+ indiweb: process, FIFO &amp; driver-catalog control</text>

  <!-- INDI Drivers layer -->
  <rect x="365" y="398" width="310" height="80" rx="8" fill="#FCE4EC" stroke="#C2185B" stroke-width="2"/>
  <text x="520" y="426" text-anchor="middle" font-size="13" font-weight="700" fill="#880E4F">INDI Drivers</text>
  <text x="520" y="446" text-anchor="middle" font-size="11" fill="#880E4F">indi_* processes — one per device family</text>

  <!-- USB/Serial interface -->
  <rect x="365" y="498" width="310" height="60" rx="8" fill="#ECEFF1" stroke="#546E7A" stroke-width="2"/>
  <text x="520" y="533" text-anchor="middle" font-size="13" font-weight="700" fill="#37474F">USB / Serial Interface</text>

  <!-- Astrophotography Instruments -->
  <text x="1090" y="95" text-anchor="middle" font-size="15" font-weight="700" fill="#212121">Astrophotography</text>
  <text x="1090" y="113" text-anchor="middle" font-size="15" font-weight="700" fill="#212121">Instruments</text>

  <rect x="980" y="130" width="220" height="60" rx="8" fill="#F3E5F5" stroke="#8E24AA" stroke-width="2"/>
  <text x="1090" y="165" text-anchor="middle" font-size="13" fill="#4A148C">Mount / Telescope</text>

  <rect x="980" y="205" width="220" height="60" rx="8" fill="#F3E5F5" stroke="#8E24AA" stroke-width="2"/>
  <text x="1090" y="240" text-anchor="middle" font-size="13" fill="#4A148C">Main Camera (CCD/CMOS)</text>

  <rect x="980" y="280" width="220" height="60" rx="8" fill="#F3E5F5" stroke="#8E24AA" stroke-width="2"/>
  <text x="1090" y="315" text-anchor="middle" font-size="13" fill="#4A148C">Filter Wheel</text>

  <rect x="980" y="355" width="220" height="60" rx="8" fill="#F3E5F5" stroke="#8E24AA" stroke-width="2"/>
  <text x="1090" y="390" text-anchor="middle" font-size="13" fill="#4A148C">Focuser</text>

  <rect x="980" y="430" width="220" height="60" rx="8" fill="#F3E5F5" stroke="#8E24AA" stroke-width="2"/>
  <text x="1090" y="465" text-anchor="middle" font-size="13" fill="#4A148C">Guide Camera</text>

  <!-- Arrow: Client <-> MCP Server -->
  <line x1="260" y1="345" x2="358" y2="150" stroke="#37474F" stroke-width="2" marker-start="url(#arrow)" marker-end="url(#arrow)"/>
  <text x="300" y="253" font-size="11" fill="#212121">MCP protocol</text>
  <text x="300" y="268" font-size="11" fill="#212121">(local network,</text>
  <text x="300" y="283" font-size="11" fill="#212121">e.g. Streamable HTTP)</text>

  <!-- Arrow: MCP Server <-> Local Storage -->
  <line x1="675" y1="170" x2="693" y2="170" stroke="#37474F" stroke-width="2" marker-start="url(#arrow)" marker-end="url(#arrow)"/>
  <text x="805" y="267" text-anchor="middle" font-size="10" fill="#212121">reads / writes</text>

  <!-- Arrow: MCP Server -> INDI Server -->
  <line x1="520" y1="250" x2="520" y2="282" stroke="#37474F" stroke-width="2" marker-end="url(#arrow)"/>
  <text x="512" y="260" font-size="10" fill="#212121" text-anchor="end">indipyclient (device control) /</text>
  <text x="512" y="273" font-size="10" fill="#212121" text-anchor="end">indiweb (server/driver mgmt)</text>

  <!-- Arrow: INDI Server -> Drivers -->
  <line x1="520" y1="364" x2="520" y2="396" stroke="#37474F" stroke-width="2" marker-end="url(#arrow)"/>
  <text x="512" y="383" font-size="10" fill="#212121" text-anchor="end">start / stop via FIFO</text>

  <!-- Arrow: Drivers -> USB/Serial -->
  <line x1="520" y1="478" x2="520" y2="496" stroke="#37474F" stroke-width="2" marker-end="url(#arrow)"/>

  <!-- Arrows: USB/Serial -> devices -->
  <line x1="675" y1="513" x2="978" y2="160" stroke="#37474F" stroke-width="1.5" marker-end="url(#arrow)"/>
  <line x1="675" y1="523" x2="978" y2="235" stroke="#37474F" stroke-width="1.5" marker-end="url(#arrow)"/>
  <line x1="675" y1="528" x2="978" y2="310" stroke="#37474F" stroke-width="1.5" marker-end="url(#arrow)"/>
  <line x1="675" y1="533" x2="978" y2="385" stroke="#37474F" stroke-width="1.5" marker-end="url(#arrow)"/>
  <line x1="675" y1="538" x2="978" y2="460" stroke="#37474F" stroke-width="1.5" marker-end="url(#arrow)"/>
  <text x="705" y="575" font-size="11" fill="#212121">USB / Serial</text>

  <!-- Legend -->
  <line x1="30" y1="505" x2="60" y2="505" stroke="#37474F" stroke-width="2" marker-end="url(#arrow)"/>
  <text x="67" y="509" font-size="11" fill="#37474F">data / control flow</text>
</svg>
